<mxfile host="65bd71144e">
    <diagram id="pmP5r07BxHL1yxcdajyK" name="PÃ¡gina-1">
        <mxGraphModel dx="861" dy="248" grid="1" gridSize="10" guides="1" tooltips="1" connect="1" arrows="1" fold="1" page="1" pageScale="1" pageWidth="827" pageHeight="1169" math="0" shadow="0">
            <root>
                <mxCell id="0"/>
                <mxCell id="1" parent="0"/>
                <mxCell id="17" value="" style="edgeStyle=none;html=1;" edge="1" parent="1" source="13" target="16">
                    <mxGeometry relative="1" as="geometry"/>
                </mxCell>
                <mxCell id="13" value="&lt;p style=&quot;margin:0px;margin-top:4px;text-align:center;&quot;&gt;&lt;b&gt;Video&lt;/b&gt;&lt;/p&gt;&lt;hr size=&quot;1&quot;&gt;&lt;p style=&quot;margin:0px;margin-left:4px;&quot;&gt;+ field: Type&lt;/p&gt;&lt;p style=&quot;margin:0px;margin-left:4px;&quot;&gt;+ id: uuid&lt;br style=&quot;padding: 0px; margin: 0px;&quot;&gt;+ title: string&lt;br style=&quot;padding: 0px; margin: 0px;&quot;&gt;+ description: string&lt;br style=&quot;padding: 0px; margin: 0px;&quot;&gt;+ url: string&lt;br style=&quot;padding: 0px; margin: 0px;&quot;&gt;+ user_id: string&lt;br style=&quot;padding: 0px; margin: 0px;&quot;&gt;+ published_at: datetime&lt;br style=&quot;padding: 0px; margin: 0px;&quot;&gt;+ created_at: datetime&lt;br style=&quot;padding: 0px; margin: 0px;&quot;&gt;+ updated_at: datetime&lt;br style=&quot;padding: 0px; margin: 0px;&quot;&gt;+ deleted_at: datetime&lt;br&gt;&lt;/p&gt;&lt;hr size=&quot;1&quot;&gt;&lt;p style=&quot;margin:0px;margin-left:4px;&quot;&gt;+ create(VideoValidator): Video&lt;/p&gt;" style="verticalAlign=top;align=left;overflow=fill;fontSize=12;fontFamily=Helvetica;html=1;rounded=0;sketch=0;" vertex="1" parent="1">
                    <mxGeometry x="270" y="40" width="190" height="220" as="geometry"/>
                </mxCell>
                <mxCell id="16" value="&lt;p style=&quot;margin:0px;margin-top:4px;text-align:center;&quot;&gt;&lt;b&gt;User&lt;/b&gt;&lt;/p&gt;&lt;hr size=&quot;1&quot;&gt;&lt;p style=&quot;margin:0px;margin-left:4px;&quot;&gt;+ field: Type&lt;/p&gt;&lt;p style=&quot;margin:0px;margin-left:4px;&quot;&gt;+ id: uuid&lt;br style=&quot;padding: 0px; margin: 0px;&quot;&gt;+ title: string&lt;br style=&quot;padding: 0px; margin: 0px;&quot;&gt;+ description: string&lt;br style=&quot;padding: 0px; margin: 0px;&quot;&gt;+ url: string&lt;br style=&quot;padding: 0px; margin: 0px;&quot;&gt;+ user_id: string&lt;br style=&quot;padding: 0px; margin: 0px;&quot;&gt;+ published_at: datetime&lt;br style=&quot;padding: 0px; margin: 0px;&quot;&gt;+ created_at: datetime&lt;br style=&quot;padding: 0px; margin: 0px;&quot;&gt;+ updated_at: datetime&lt;br style=&quot;padding: 0px; margin: 0px;&quot;&gt;+ deleted_at: datetime&lt;br&gt;&lt;/p&gt;&lt;hr size=&quot;1&quot;&gt;&lt;p style=&quot;margin:0px;margin-left:4px;&quot;&gt;+ method(): Type&lt;/p&gt;" style="verticalAlign=top;align=left;overflow=fill;fontSize=12;fontFamily=Helvetica;html=1;rounded=0;sketch=0;" vertex="1" parent="1">
                    <mxGeometry x="630" y="40" width="160" height="220" as="geometry"/>
                </mxCell>
            </root>
        </mxGraphModel>
    </diagram>
</mxfile>